<svg width="192" height="41" viewBox="0 0 192 41" fill="none" xmlns="http://www.w3.org/2000/svg">
<rect width="192" height="41" fill="black"/>
<path d="M13.304 33L3 10.12H8.568L17.048 29H17.464L25.944 10.12H31.512L21.208 33H13.304ZM35.5503 33C33.8223 33 32.4996 32.5627 31.5823 31.688C30.6649 30.8133 30.2063 29.5653 30.2063 27.944C30.2063 26.344 30.6649 25.1067 31.5823 24.232C32.4996 23.3573 33.8223 22.92 35.5503 22.92H47.8383V22.152C47.8383 20.8507 47.1983 20.2 45.9183 20.2H32.3503V16.52H47.1343C49.0756 16.52 50.4516 16.968 51.2623 17.864C52.0729 18.7387 52.4783 19.976 52.4783 21.576V33H35.5503ZM36.3823 29.32H47.8383V26.6H36.3823C35.9769 26.6 35.6569 26.728 35.4223 26.984C35.2089 27.2187 35.1023 27.5387 35.1023 27.944C35.1023 28.3493 35.2089 28.68 35.4223 28.936C35.6569 29.192 35.9769 29.32 36.3823 29.32ZM59.914 40.2V36.52H69.578C70.858 36.52 71.498 35.8693 71.498 34.568V33H64.458C61.5993 33 59.37 32.296 57.77 30.888C56.17 29.48 55.37 27.4427 55.37 24.776C55.37 22.088 56.17 20.04 57.77 18.632C59.37 17.224 61.5993 16.52 64.458 16.52H76.138V35.144C76.138 36.6587 75.7007 37.8747 74.826 38.792C73.9513 39.7307 72.586 40.2 70.73 40.2H59.914ZM64.458 29.32H71.498V20.2H64.458C63.0713 20.2 62.0047 20.584 61.258 21.352C60.5327 22.0987 60.17 23.24 60.17 24.776C60.17 26.2907 60.5327 27.432 61.258 28.2C62.0047 28.9467 63.0713 29.32 64.458 29.32ZM84.0503 33C82.3223 33 80.9996 32.5627 80.0823 31.688C79.1649 30.8133 78.7063 29.5653 78.7063 27.944C78.7063 26.344 79.1649 25.1067 80.0823 24.232C80.9996 23.3573 82.3223 22.92 84.0503 22.92H96.3383V22.152C96.3383 20.8507 95.6983 20.2 94.4183 20.2H80.8503V16.52H95.6343C97.5756 16.52 98.9516 16.968 99.7623 17.864C100.573 18.7387 100.978 19.976 100.978 21.576V33H84.0503ZM84.8823 29.32H96.3383V26.6H84.8823C84.4769 26.6 84.1569 26.728 83.9223 26.984C83.7089 27.2187 83.6023 27.5387 83.6023 27.944C83.6023 28.3493 83.7089 28.68 83.9223 28.936C84.1569 29.192 84.4769 29.32 84.8823 29.32ZM103.966 33.16V29.48H119.646C120.542 29.48 120.99 28.9787 120.99 27.976C120.99 26.9947 120.542 26.504 119.646 26.504H109.502C107.603 26.504 106.163 26.0773 105.182 25.224C104.201 24.3493 103.71 23.1013 103.71 21.48C103.71 19.8373 104.201 18.5787 105.182 17.704C106.185 16.808 107.625 16.36 109.502 16.36H124.094V20.04H109.726C108.809 20.04 108.35 20.488 108.35 21.384C108.35 21.832 108.478 22.184 108.734 22.44C108.99 22.696 109.321 22.824 109.726 22.824H120.478C122.142 22.824 123.411 23.2613 124.286 24.136C125.182 24.9893 125.63 26.2373 125.63 27.88C125.63 29.544 125.182 30.8453 124.286 31.784C123.39 32.7013 122.121 33.16 120.478 33.16H103.966Z" fill="white"/>
<rect x="129" y="1.73628" width="61" height="32" fill="black"/>
<path d="M134.02 7.12222H132.88L131.44 4.60222V7.12222H130.36V2.92222H131.5L132.94 5.44222V2.92222H134.02V7.12222ZM137.443 4.06222C137.443 3.82222 137.323 3.70222 137.083 3.70222H136.063C135.823 3.70222 135.703 3.82222 135.703 4.06222V5.98222C135.703 6.22222 135.823 6.34222 136.063 6.34222H137.083C137.323 6.34222 137.443 6.22222 137.443 5.98222V4.06222ZM138.523 5.98222C138.523 6.40222 138.427 6.70822 138.235 6.90022C138.047 7.08822 137.743 7.18222 137.323 7.18222H135.823C135.403 7.18222 135.097 7.08822 134.905 6.90022C134.717 6.70822 134.623 6.40222 134.623 5.98222V4.06222C134.623 3.64222 134.717 3.33822 134.905 3.15022C135.097 2.95822 135.403 2.86222 135.823 2.86222H137.323C137.743 2.86222 138.047 2.95822 138.235 3.15022C138.427 3.33822 138.523 3.64222 138.523 4.06222V5.98222ZM139.126 2.92222H141.646C142.066 2.92222 142.37 3.01822 142.558 3.21022C142.75 3.39822 142.846 3.70222 142.846 4.12222V4.66222C142.846 4.99422 142.79 5.25222 142.678 5.43622C142.57 5.62022 142.396 5.74222 142.156 5.80222L142.906 7.12222H141.736L141.046 5.86222H140.206V7.12222H139.126V2.92222ZM141.766 4.12222C141.766 3.88222 141.646 3.76222 141.406 3.76222H140.206V5.02222H141.406C141.646 5.02222 141.766 4.90222 141.766 4.66222V4.12222ZM145.484 7.12222H144.404V3.76222H143.144V2.92222H146.744V3.76222H145.484V7.12222ZM150.495 7.12222H147.165V2.92222H150.495V3.76222H148.245V4.57222H150.015V5.41222H148.245V6.28222H150.495V7.12222Z" fill="white"/>
<line x1="130" y1="29.7878" x2="158.695" y2="29.7878" stroke="url(#paint0_linear_3_9787)" stroke-width="6"/>
<line x1="130" y1="21.7443" x2="158.695" y2="21.7443" stroke="white" stroke-width="6"/>
<line x1="155.695" y1="24.7444" x2="155.695" y2="2.62496" stroke="white" stroke-width="6"/>
<line x1="133" y1="23.7797" x2="133" y2="15.7363" stroke="white" stroke-width="6"/>
<line x1="164" y1="20.7363" x2="164" y2="32.8014" stroke="white" stroke-width="6"/>
<path d="M189.458 29.7552L166.5 29.7363" stroke="white" stroke-width="6"/>
<line x1="189.368" y1="5.62494" x2="160.674" y2="5.62494" stroke="white" stroke-width="6"/>
<line y1="-3" x2="29.5158" y2="-3" transform="matrix(-0.827823 -0.56099 0.548706 -0.836015 189.217 23.975)" stroke="white" stroke-width="6"/>
<line x1="186.378" y1="3.73628" x2="186.378" y2="15.8014" stroke="white" stroke-width="6"/>
<line x1="163.674" y1="2.62494" x2="163.674" y2="14.6901" stroke="white" stroke-width="6"/>
<line x1="186.432" y1="20.2199" x2="186.432" y2="32.285" stroke="white" stroke-width="6"/>
<path d="M189.5 20.2363L189.5 24.2411L172.544 12.6753L189.5 20.2363Z" fill="black"/>
<path d="M189.5 20.2363L189.5 24.2411L172.544 12.6753L189.5 20.2363Z" fill="black"/>
<path d="M178.978 24.2411L177.989 25.7492L159.685 14.1874L159.684 11.1712L161.169 12.177L178.978 24.2411Z" fill="black"/>
<defs>
<linearGradient id="paint0_linear_3_9787" x1="130" y1="33.2878" x2="158.695" y2="33.2878" gradientUnits="userSpaceOnUse">
<stop stop-color="#F4E60B"/>
<stop offset="0.5" stop-color="#018D5E"/>
<stop offset="1" stop-color="#3178C6"/>
</linearGradient>
</defs>
</svg>
