<svg width="192" height="41" viewBox="0 0 192 41" fill="none" xmlns="http://www.w3.org/2000/svg">
<rect width="192" height="41" fill="white"/>
<path d="M13.304 33L3 10.12H8.568L17.048 29H17.464L25.944 10.12H31.512L21.208 33H13.304ZM35.5503 33C33.8223 33 32.4996 32.5627 31.5823 31.688C30.6649 30.8133 30.2063 29.5653 30.2063 27.944C30.2063 26.344 30.6649 25.1067 31.5823 24.232C32.4996 23.3573 33.8223 22.92 35.5503 22.92H47.8383V22.152C47.8383 20.8507 47.1983 20.2 45.9183 20.2H32.3503V16.52H47.1343C49.0756 16.52 50.4516 16.968 51.2623 17.864C52.0729 18.7387 52.4783 19.976 52.4783 21.576V33H35.5503ZM36.3823 29.32H47.8383V26.6H36.3823C35.9769 26.6 35.6569 26.728 35.4223 26.984C35.2089 27.2187 35.1023 27.5387 35.1023 27.944C35.1023 28.3493 35.2089 28.68 35.4223 28.936C35.6569 29.192 35.9769 29.32 36.3823 29.32ZM59.914 40.2V36.52H69.578C70.858 36.52 71.498 35.8693 71.498 34.568V33H64.458C61.5993 33 59.37 32.296 57.77 30.888C56.17 29.48 55.37 27.4427 55.37 24.776C55.37 22.088 56.17 20.04 57.77 18.632C59.37 17.224 61.5993 16.52 64.458 16.52H76.138V35.144C76.138 36.6587 75.7007 37.8747 74.826 38.792C73.9513 39.7307 72.586 40.2 70.73 40.2H59.914ZM64.458 29.32H71.498V20.2H64.458C63.0713 20.2 62.0047 20.584 61.258 21.352C60.5327 22.0987 60.17 23.24 60.17 24.776C60.17 26.2907 60.5327 27.432 61.258 28.2C62.0047 28.9467 63.0713 29.32 64.458 29.32ZM84.0503 33C82.3223 33 80.9996 32.5627 80.0823 31.688C79.1649 30.8133 78.7063 29.5653 78.7063 27.944C78.7063 26.344 79.1649 25.1067 80.0823 24.232C80.9996 23.3573 82.3223 22.92 84.0503 22.92H96.3383V22.152C96.3383 20.8507 95.6983 20.2 94.4183 20.2H80.8503V16.52H95.6343C97.5756 16.52 98.9516 16.968 99.7623 17.864C100.573 18.7387 100.978 19.976 100.978 21.576V33H84.0503ZM84.8823 29.32H96.3383V26.6H84.8823C84.4769 26.6 84.1569 26.728 83.9223 26.984C83.7089 27.2187 83.6023 27.5387 83.6023 27.944C83.6023 28.3493 83.7089 28.68 83.9223 28.936C84.1569 29.192 84.4769 29.32 84.8823 29.32ZM103.966 33.16V29.48H119.646C120.542 29.48 120.99 28.9787 120.99 27.976C120.99 26.9947 120.542 26.504 119.646 26.504H109.502C107.603 26.504 106.163 26.0773 105.182 25.224C104.201 24.3493 103.71 23.1013 103.71 21.48C103.71 19.8373 104.201 18.5787 105.182 17.704C106.185 16.808 107.625 16.36 109.502 16.36H124.094V20.04H109.726C108.809 20.04 108.35 20.488 108.35 21.384C108.35 21.832 108.478 22.184 108.734 22.44C108.99 22.696 109.321 22.824 109.726 22.824H120.478C122.142 22.824 123.411 23.2613 124.286 24.136C125.182 24.9893 125.63 26.2373 125.63 27.88C125.63 29.544 125.182 30.8453 124.286 31.784C123.39 32.7013 122.121 33.16 120.478 33.16H103.966Z" fill="black"/>
<rect x="128.732" y="2.23628" width="61" height="32" fill="white"/>
<path d="M133.752 7.62222H132.612L131.172 5.10222V7.62222H130.092V3.42222H131.232L132.672 5.94222V3.42222H133.752V7.62222ZM137.175 4.56222C137.175 4.32222 137.055 4.20222 136.815 4.20222H135.795C135.555 4.20222 135.435 4.32222 135.435 4.56222V6.48222C135.435 6.72222 135.555 6.84222 135.795 6.84222H136.815C137.055 6.84222 137.175 6.72222 137.175 6.48222V4.56222ZM138.255 6.48222C138.255 6.90222 138.159 7.20822 137.967 7.40022C137.779 7.58822 137.475 7.68222 137.055 7.68222H135.555C135.135 7.68222 134.829 7.58822 134.637 7.40022C134.449 7.20822 134.355 6.90222 134.355 6.48222V4.56222C134.355 4.14222 134.449 3.83822 134.637 3.65022C134.829 3.45822 135.135 3.36222 135.555 3.36222H137.055C137.475 3.36222 137.779 3.45822 137.967 3.65022C138.159 3.83822 138.255 4.14222 138.255 4.56222V6.48222ZM138.857 3.42222H141.377C141.797 3.42222 142.101 3.51822 142.289 3.71022C142.481 3.89822 142.577 4.20222 142.577 4.62222V5.16222C142.577 5.49422 142.521 5.75222 142.409 5.93622C142.301 6.12022 142.127 6.24222 141.887 6.30222L142.637 7.62222H141.467L140.777 6.36222H139.937V7.62222H138.857V3.42222ZM141.497 4.62222C141.497 4.38222 141.377 4.26222 141.137 4.26222H139.937V5.52222H141.137C141.377 5.52222 141.497 5.40222 141.497 5.16222V4.62222ZM145.216 7.62222H144.136V4.26222H142.876V3.42222H146.476V4.26222H145.216V7.62222ZM150.226 7.62222H146.896V3.42222H150.226V4.26222H147.976V5.07222H149.746V5.91222H147.976V6.78222H150.226V7.62222Z" fill="black"/>
<line x1="129.732" y1="30.2878" x2="158.426" y2="30.2878" stroke="url(#paint0_linear_3_9788)" stroke-width="6"/>
<line x1="129.732" y1="22.2443" x2="158.426" y2="22.2443" stroke="black" stroke-width="6"/>
<line x1="155.426" y1="25.2444" x2="155.426" y2="3.12496" stroke="black" stroke-width="6"/>
<line x1="132.732" y1="24.2797" x2="132.732" y2="16.2363" stroke="black" stroke-width="6"/>
<line x1="163.732" y1="21.2363" x2="163.732" y2="33.3014" stroke="black" stroke-width="6"/>
<path d="M189.19 30.2552L166.232 30.2363" stroke="black" stroke-width="6"/>
<line x1="189.1" y1="6.12494" x2="160.405" y2="6.12494" stroke="black" stroke-width="6"/>
<line y1="-3" x2="29.5158" y2="-3" transform="matrix(-0.827823 -0.56099 0.548706 -0.836015 188.948 24.475)" stroke="black" stroke-width="6"/>
<line x1="186.109" y1="4.23628" x2="186.109" y2="16.3014" stroke="black" stroke-width="6"/>
<line x1="163.405" y1="3.12494" x2="163.405" y2="15.1901" stroke="black" stroke-width="6"/>
<line x1="186.163" y1="20.7199" x2="186.163" y2="32.785" stroke="black" stroke-width="6"/>
<path d="M189.232 20.7363L189.232 24.7411L172.275 13.1753L189.232 20.7363Z" fill="white"/>
<path d="M189.232 20.7363L189.232 24.7411L172.275 13.1753L189.232 20.7363Z" fill="white"/>
<path d="M178.71 24.7411L177.721 26.2492L159.416 14.6874L159.416 11.6712L160.901 12.677L178.71 24.7411Z" fill="white"/>
<defs>
<linearGradient id="paint0_linear_3_9788" x1="129.732" y1="33.7878" x2="158.426" y2="33.7878" gradientUnits="userSpaceOnUse">
<stop stop-color="#F4E60B"/>
<stop offset="0.5" stop-color="#018D5E"/>
<stop offset="1" stop-color="#3178C6"/>
</linearGradient>
</defs>
</svg>
